<?xml version="1.0" standalone="no"?>
<!DOCTYPE svg PUBLIC "-//W3C//DTD SVG 20010904//EN"
 "http://www.w3.org/TR/2001/REC-SVG-20010904/DTD/svg10.dtd">
<svg version="1.0" xmlns="http://www.w3.org/2000/svg"
 width="16.000000pt" height="16.000000pt" viewBox="0 0 16.000000 16.000000"
 preserveAspectRatio="xMidYMid meet">
<metadata>
Created by potrace 1.11, written by Peter Selinger 2001-2013
</metadata>
<g transform="translate(0.000000,16.000000) scale(0.006250,-0.006250)"
fill="#000000" stroke="none">
<path d="M1497 2525 c-106 -33 -126 -34 -197 -14 -118 32 -225 19 -400 -49
-114 -45 -193 -104 -350 -262 -100 -100 -155 -167 -266 -325 -81 -115 -79
-107 -79 -425 0 -254 7 -355 36 -515 6 -33 13 -72 16 -87 12 -74 118 -400 150
-460 44 -84 117 -160 221 -230 106 -72 174 -95 392 -133 19 -4 107 -8 195 -10
126 -4 181 0 260 14 187 35 244 67 366 203 46 51 91 102 101 113 10 10 41 64
68 120 39 78 70 170 140 418 49 174 119 405 155 512 49 146 63 200 56 217 -4
13 -9 55 -10 93 -5 151 -54 317 -137 461 -119 206 -189 284 -307 339 -82 38
-109 44 -222 49 -68 3 -96 -1 -188 -29z m344 -35 c115 -39 181 -96 271 -235
124 -190 184 -349 194 -510 l6 -80 -44 75 c-51 87 -71 117 -152 232 -89 124
-124 164 -177 204 l-48 35 -118 -2 c-65 -1 -152 -5 -194 -10 -42 -4 -123 -10
-180 -13 -461 -28 -587 -63 -802 -225 -96 -72 -111 -80 -171 -89 -38 -6 -79
-20 -97 -33 l-31 -22 28 44 c90 145 305 379 442 483 64 49 220 115 322 137 59
13 159 5 232 -17 48 -14 74 -11 179 21 102 31 123 34 197 30 45 -3 110 -14
143 -25z m78 -357 l39 -28 -43 0 c-24 1 -51 8 -61 16 -28 23 -93 16 -162 -17
l-63 -31 -14 28 c-8 15 -24 30 -35 34 -37 12 -20 20 47 23 38 2 69 5 71 7 2 2
43 2 92 0 80 -3 93 -6 129 -32z m-625 -11 c-15 -15 -23 -16 -37 -8 -16 10 -15
12 10 17 45 11 47 10 27 -9z m247 -15 c30 -12 40 -25 56 -67 l20 -52 17 27
c18 27 94 66 152 79 26 6 35 3 50 -16 28 -35 41 -40 58 -22 19 19 41 13 95
-27 48 -35 81 -83 80 -119 0 -14 -3 -19 -6 -12 -9 22 -20 12 -21 -19 -2 -71
-14 -110 -35 -119 -26 -9 -83 11 -109 40 -23 25 -30 25 -45 0 -20 -31 -70 -51
-143 -57 l-68 -5 -12 38 -13 39 -14 -41 c-18 -53 -44 -65 -155 -71 -139 -8
-169 7 -161 79 l4 43 -28 -50 -28 -50 -70 0 c-132 0 -251 38 -249 81 0 17 -8
19 -72 20 -90 1 -153 32 -170 82 l-10 33 -27 -21 c-15 -12 -32 -20 -39 -18 -6
2 15 23 48 46 48 34 65 41 89 36 17 -3 57 3 95 15 36 12 72 21 81 21 9 0 23
10 32 23 18 28 108 58 192 64 51 4 64 2 88 -17 15 -12 27 -30 27 -40 0 -9 6
-23 14 -29 16 -14 30 0 40 41 4 20 17 30 48 42 82 29 126 30 189 3z m584 -227
c3 -5 1 -10 -4 -10 -6 0 -11 5 -11 10 0 6 2 10 4 10 3 0 8 -4 11 -10z m-1472
-25 c9 -23 97 -62 157 -70 31 -4 64 -15 75 -26 54 -49 177 -79 315 -75 44 1
88 -3 107 -11 50 -20 188 -16 253 8 32 12 77 20 108 19 70 -1 151 16 181 39
23 17 25 17 65 -2 44 -22 94 -24 127 -6 11 6 23 9 25 6 12 -12 25 -130 20
-188 -15 -171 -72 -406 -115 -475 -11 -18 -40 -41 -67 -55 -27 -12 -60 -35
-74 -49 -26 -26 -88 -50 -132 -50 -35 0 -67 -35 -74 -81 -6 -36 -12 -44 -47
-59 -28 -13 -47 -16 -58 -10 -17 9 -27 9 -151 -5 -41 -5 -73 -4 -80 2 -14 10
-41 10 -122 -1 -26 -4 -62 -2 -80 3 -17 5 -53 13 -81 16 -27 3 -57 12 -65 20
-13 12 -58 25 -194 57 -38 9 -38 10 -33 49 5 36 1 44 -29 74 -36 37 -85 64
-146 84 -55 18 -114 83 -132 145 -8 28 -40 149 -71 268 l-56 216 21 42 c24 47
71 80 116 80 17 0 49 6 71 14 21 7 58 16 83 20 24 3 45 8 48 11 10 10 30 5 35
-10z m1510 -74 c33 -36 49 -64 66 -121 13 -41 28 -78 34 -82 11 -6 -196 -433
-216 -445 -5 -3 -5 3 1 13 5 11 17 53 26 94 16 74 20 92 32 160 4 19 9 44 11
55 2 11 6 61 8 111 4 72 0 106 -16 160 -34 115 -34 113 -10 107 11 -3 40 -26
64 -52z m-1877 -297 c77 -309 98 -369 183 -539 51 -103 199 -343 241 -392 22
-26 33 -29 294 -84 182 -38 206 -41 295 -35 123 8 307 49 346 78 98 71 243
239 309 356 85 152 180 332 272 517 93 188 96 182 18 -45 -29 -85 -80 -254
-114 -375 -143 -509 -155 -536 -372 -762 -105 -111 -244 -149 -538 -147 -251
2 -436 45 -564 132 -96 65 -178 147 -210 210 -50 99 -58 137 -13 59 34 -57 91
-121 155 -173 59 -48 86 -54 102 -25 8 17 0 30 -53 88 -35 38 -78 91 -96 117
-69 99 -126 263 -139 395 -7 68 -13 75 -54 57 -16 -7 -36 -68 -30 -89 1 -5 -2
-6 -7 -3 -5 3 -12 20 -15 38 -3 18 -8 44 -11 58 -3 13 -7 40 -10 60 -3 19 -10
67 -15 105 -12 78 -25 553 -15 544 3 -4 22 -69 41 -145z m198 -433 c3 -4 31
-18 63 -29 79 -29 135 -76 124 -104 -13 -37 -1 -69 33 -83 17 -7 68 -21 113
-30 45 -10 90 -25 101 -35 10 -9 40 -20 68 -24 27 -4 69 -12 94 -18 33 -7 63
-8 105 0 46 8 67 7 91 -3 22 -9 45 -10 75 -5 95 18 147 19 158 6 10 -12 23 -9
76 13 36 15 67 30 70 32 2 3 6 21 8 40 5 50 16 69 41 69 43 0 124 30 150 57
29 29 141 89 129 70 -7 -13 -80 -102 -100 -125 -7 -7 -21 -32 -31 -55 -11 -23
-31 -53 -46 -67 -23 -21 -30 -22 -46 -12 -11 7 -21 12 -22 12 -2 0 -2 -20 0
-43 4 -43 2 -45 -64 -105 -81 -73 -136 -85 -114 -26 13 34 1 30 -59 -21 -29
-25 -60 -46 -69 -46 -9 -1 -29 -3 -45 -5 -22 -2 -32 4 -51 32 l-23 35 -27 -35
c-31 -42 -80 -55 -123 -34 -24 12 -28 19 -28 56 1 23 -2 42 -6 42 -3 0 -14
-18 -24 -40 -21 -47 -43 -56 -113 -45 -54 8 -72 20 -72 47 0 24 -27 35 -51 20
-59 -37 -159 21 -159 91 0 13 7 45 14 72 l15 48 -37 -36 c-21 -21 -43 -37 -49
-37 -15 0 -57 62 -111 162 -54 99 -84 168 -72 168 5 0 11 -4 14 -9z m-114
-254 c0 -76 86 -291 154 -382 l37 -50 -36 40 c-53 59 -102 144 -137 237 -30
83 -45 178 -27 178 5 0 9 -10 9 -23z m1160 -277 c0 -5 -8 -10 -17 -10 -15 0
-16 2 -3 10 19 12 20 12 20 0z m-205 -30 c3 -5 3 -10 -2 -10 -4 0 -19 -3 -33
-6 -24 -6 -25 -6 -5 9 24 19 32 21 40 7z"/>
</g>
</svg>
